<?xml version="1.0" encoding="UTF-8" standalone="no"?>
<!-- Created with Inkscape (http://www.inkscape.org/) -->

<svg
   width="1800px"
   height="1800px"
   viewBox="0 0 1800 1800"
   version="1.1"
   id="SVGRoot"
   sodipodi:docname="moon1.svg"
   inkscape:version="1.1.2 (0a00cf5339, 2022-02-04)"
   xmlns:inkscape="http://www.inkscape.org/namespaces/inkscape"
   xmlns:sodipodi="http://sodipodi.sourceforge.net/DTD/sodipodi-0.dtd"
   xmlns="http://www.w3.org/2000/svg"
   xmlns:svg="http://www.w3.org/2000/svg">
  <sodipodi:namedview
     id="namedview16133"
     pagecolor="#ffffff"
     bordercolor="#666666"
     borderopacity="1.0"
     inkscape:pageshadow="2"
     inkscape:pageopacity="0.0"
     inkscape:pagecheckerboard="0"
     inkscape:document-units="px"
     showgrid="false"
     inkscape:zoom="0.45291835"
     inkscape:cx="917.38389"
     inkscape:cy="1009.0119"
     inkscape:window-width="1680"
     inkscape:window-height="981"
     inkscape:window-x="0"
     inkscape:window-y="0"
     inkscape:window-maximized="1"
     inkscape:current-layer="layer1"
     showguides="true"
     inkscape:guide-bbox="true">
    <sodipodi:guide
       position="2.1328296,900.00193"
       orientation="0,-1"
       id="guide16255" />
    <sodipodi:guide
       position="900.0046,1793.091"
       orientation="1,0"
       id="guide16257" />
  </sodipodi:namedview>
  <defs
     id="defs16128" />
  <g
     inkscape:label="Warstwa 1"
     inkscape:groupmode="layer"
     id="layer1">
    <g
       id="g14254"
       style="fill:#dcbb00;fill-opacity:1"
       transform="matrix(0.13333333,0,0,-0.13333333,-1660.2378,2335.2389)">
      <path
         d="m 22188.7,8551.7 c -130,96.9 -288.7,145.4 -476.1,145.4 -187.4,0 -348,-48.5 -481.9,-145.4 -49.7,-38.8 -89.9,-79.1 -120.4,-121.1 -15.3,12.9 -32.6,24.2 -51.7,33.9 -114.7,71.1 -252.4,106.6 -413,106.6 -160.6,0 -298.3,-35.5 -413,-106.6 -114.8,-71.1 -172.1,-156.7 -172.1,-256.8 0,-100.2 57.3,-185.8 172.1,-256.8 114.7,-71.1 252.4,-106.6 413,-106.6 160.6,0 298.3,35.5 413,106.6 15.3,9.7 30.6,19.4 45.9,29 30.6,-48.4 72.7,-93.6 126.2,-135.6 133.9,-96.9 294.5,-145.4 481.9,-145.4 187.4,0 346.1,48.5 476.1,145.4 133.9,96.9 200.8,214.8 200.8,353.7 0,138.9 -66.9,256.8 -200.8,353.7 z m -1434.1,-1003 c -61.2,-51.7 -91.8,-114.7 -91.8,-189 0,-74.3 30.6,-137.3 91.8,-188.9 61.2,-51.7 135.8,-77.6 223.7,-77.6 88,0 162.5,25.9 223.7,77.6 61.2,51.6 91.8,114.6 91.8,188.9 0,74.3 -30.6,137.3 -91.8,189 -61.2,51.7 -135.7,77.5 -223.7,77.5 -87.9,0 -162.5,-25.8 -223.7,-77.5 m -4055.7,8251.8 c 26.8,19.4 40.1,45.2 40.1,77.5 0,32.3 -13.3,59.8 -40.1,82.4 -23,19.4 -53.6,29.1 -91.8,29.1 -38.2,0 -70.7,-9.7 -97.5,-29.1 -23,-22.6 -34.4,-50.1 -34.4,-82.4 0,-32.3 11.4,-58.1 34.4,-77.5 26.8,-22.6 59.3,-33.9 97.5,-33.9 38.2,0 68.8,11.3 91.8,33.9 m 1221.9,814.1 c -57.4,48.4 -126.2,72.6 -206.6,72.6 -80.3,0 -149.1,-24.2 -206.5,-72.6 -57.3,-48.5 -86,-106.7 -86,-174.5 0,-67.8 28.7,-126 86,-174.4 57.4,-48.5 126.2,-72.7 206.5,-72.7 80.4,0 149.2,24.2 206.6,72.7 57.3,48.4 86,106.6 86,174.4 0,67.8 -28.7,126 -86,174.5 m 1761.1,-605.7 c -118.6,67.8 -263.9,101.7 -436,101.7 -172.1,0 -319.3,-33.9 -441.7,-101.7 -118.6,-71.1 -177.8,-155.1 -177.8,-252 0,-96.9 59.2,-179.3 177.8,-247.1 122.4,-71.1 269.6,-106.6 441.7,-106.6 102.5,0 194.3,12.9 275.3,38.7 91.2,64 182.9,117.3 275.4,160 45.9,45.5 68.8,97.2 68.8,155 0,96.9 -61.2,180.9 -183.5,252 m 4967.8,-6153.8 c 0,-38.7 17.2,-72.6 51.6,-101.7 34.4,-29.1 74.6,-43.6 120.5,-43.6 45.9,0 86,14.5 120.4,43.6 34.5,29.1 51.7,63 51.7,101.7 0,38.8 -17.2,72.7 -51.7,101.8 -34.4,29.1 -74.5,43.6 -120.4,43.6 -45.9,0 -86.1,-14.5 -120.5,-43.6 -34.4,-29.1 -51.6,-63 -51.6,-101.8 m -6075,-4472.3 c -99.4,0 -191.2,-17.8 -275.3,-53.3 -65,-25.9 -124.3,-61.4 -177.9,-106.6 -126.2,-106.6 -189.3,-234.2 -189.3,-382.8 0,-148.6 63.1,-276.2 189.3,-382.8 126.2,-106.6 277.3,-159.9 453.2,-159.9 175.9,0 327,53.3 453.2,159.9 126.2,106.6 189.3,234.2 189.3,382.8 0,148.6 -63.1,276.2 -189.3,382.8 -42.1,35.5 -86,64.6 -131.9,87.2 -95.6,48.5 -202.7,72.7 -321.3,72.7"
         style="fill:#dcbb00;fill-opacity:1;fill-rule:nonzero;stroke:none"
         id="path20" />
      <g
         id="g13901"
         style="fill:#dcbb00;fill-opacity:1">
        <path
           d="m 24701.3,9753.4 c -34.4,29.1 -51.6,63 -51.6,101.7 0,38.8 17.2,72.7 51.6,101.8 34.4,29.1 74.6,43.6 120.5,43.6 45.9,0 86,-14.5 120.4,-43.6 34.5,-29.1 51.7,-63 51.7,-101.8 0,-38.7 -17.2,-72.6 -51.7,-101.7 -34.4,-29.1 -74.5,-43.6 -120.4,-43.6 -45.9,0 -86.1,14.5 -120.5,43.6 z m -212.2,3110.8 c 19,49.6 34.3,98.1 45.8,145.3 14.1,-58.6 27.5,-116.7 40.2,-174.4 -26.5,15.1 -55.2,24.8 -86,29.1 m -1927.5,1443.9 c -175.9,436.1 -464.7,526.6 -866.2,271.3 -191.2,-171.1 -351.9,-171.1 -481.9,0 -344.2,271.4 -401.5,594.4 -172.1,969.1 -457,193.1 -871.9,210.8 -1244.8,53.4 -92.5,-42.7 -184.2,-96 -275.4,-160 -55.4,-42.2 -110.8,-89 -166.3,-140.5 -72.7,-239 -273.5,-313.3 -602.3,-222.9 428.3,-807.5 525.8,-1356.7 292.5,-1647.4 -577.5,-271.4 -1620.4,594.9 -1559.2,278.3 15.3,-193.8 525.022,-351.223 219.022,-486.823 -948.4,2287 -1925.822,1510.323 -3191.622,5.023 -1242.9,-2816.8 -47.8,-4569.3 3585.3,-5257.3 283,122.7 518.2,452.2 705.6,988.4 332.7,-29 525.8,176.1 579.4,615.4 -137.7,565.3 -330.8,993.3 -579.4,1284 -286.8,268.2 -223.7,486.2 189.3,654.2 160.6,100.1 160.6,289.1 0,566.9 -15.3,271.4 170.2,450.6 556.4,537.9 348,-87.3 669.3,101.7 963.8,566.9 34.4,-381.2 395.8,-720.4 1084.2,-1017.6 133.8,116.3 239,56.5 315.5,-179.3 v -363.4 l 573.6,-654.1 c 501,-96.9 734.3,9.7 699.9,319.8 -306,177.7 -610,500.7 -912.1,969.1 -263.9,536.2 -143.5,746.2 361.4,629.9 l 1153,-1036.9 c 316.3,-249.6 610.7,-235 883.4,43.6 3.6,-332.7 -21.3,-681.6 -74.6,-1046.6 -237.1,-1595.8 -870,-2891.2 -1898.7,-3886.1 -1028.8,-991.7 -2233.5,-1539.2 -3614,-1642.6 -65,-3.2 -128.1,-6.5 -189.3,-9.7 45.9,-22.6 89.8,-51.7 131.9,-87.2 126.2,-106.6 189.3,-234.2 189.3,-382.8 0,-148.6 -63.1,-276.2 -189.3,-382.8 -126.2,-106.6 -277.3,-159.9 -453.2,-159.9 -175.9,0 -327,53.3 -453.2,159.9 -126.2,106.6 -189.3,234.2 -189.3,382.8 0,148.6 63.1,276.2 189.3,382.8 53.6,45.2 112.9,80.7 177.9,106.6 -1093.8,106.6 -2137.8,599.2 -3132.2,1477.8 -1235.2,1091.9 -2013.5,3146.4 -2334.7,6163.5 -229.5,-675.2 -344.2,-1398.8 -344.2,-2170.8 0,-1841.3 654,-3411.2 1961.9,-4709.8 1311.7,-1301.8 2895,-1952.7 4749.8,-1952.7 1854.8,0 3436.2,650.9 4744.1,1952.7 1311.7,1298.6 1967.6,2868.5 1967.6,4709.8 0,1841.3 -655.9,3412.8 -1967.6,4714.6 -875.8,872.2 -1875.8,1450.4 -3000.2,1734.7 917.8,-710.7 1814.6,-1555.4 2690.4,-2534.2 313.6,-350.4 556.4,-739.7 728.5,-1167.7 -206.7,152.3 -413.2,158.8 -619.5,19.4 -99.4,61.3 -185.5,77.5 -258.1,48.4 l -923.6,692.9"
           style="fill:#dcbb00;fill-opacity:1;fill-rule:nonzero;stroke:none"
           id="path22"
           sodipodi:nodetypes="sssscscssccccccccccccccccccccccccccccccccccccccsssssccccscscsccccccc" />
        <path
           id="path24"
           style="fill:#dcbb00;fill-opacity:1;fill-rule:nonzero;stroke:none;stroke-width:0.133333"
           d="m 902.06055,15.109375 c -247.30666,0 -458.41331,86.572085 -633.30664,259.718745 -101.48,100.78667 -173.373364,213.8405 -215.693363,339.17383 42.826665,402.28005 146.601593,676.21415 311.294923,821.80075 132.58666,117.1467 271.78696,182.8258 417.62695,197.0391 11.21333,-4.7333 23.45175,-7.1074 36.70508,-7.1074 15.81333,0 30.09318,3.2267 42.83984,9.6933 8.16,-0.4266 16.57357,-0.8663 25.24024,-1.2929 184.06662,-13.7867 344.69382,-86.787 481.86722,-219.0137 137.16,-132.6533 221.5468,-305.3731 253.1601,-518.14649 7.1067,-48.66667 10.4273,-95.18688 9.9473,-139.54688 -36.36,37.14667 -75.6138,39.09446 -117.7871,5.81446 L 1360.2207,624.98828 c -67.32,-15.50667 -83.3722,12.493 -48.1855,83.98633 40.28,62.45333 80.8132,105.52151 121.6132,129.21484 4.5867,41.34667 -26.5203,55.55867 -93.3203,42.63867 l -76.4804,-87.21289 v -48.45312 c -10.2,-31.44 -24.2265,-39.41292 -42.0665,-23.90625 -91.7866,-39.62667 -139.9738,-84.85302 -144.5605,-135.67969 -39.2667,62.02667 -82.10586,87.22594 -128.50586,75.58594 -51.49333,11.64 -76.2275,35.53404 -74.1875,71.7207 21.41334,37.04 21.41334,62.23927 0,75.58594 -55.06666,22.4 -63.47828,51.46656 -25.23828,87.22656 33.14667,38.76 58.89196,95.82585 77.25196,171.19919 -7.14667,58.5734 -32.89196,85.9214 -77.25196,82.0547 -24.98666,71.4934 -56.34674,115.4252 -94.08008,131.7852 C 270.79566,1189.001 111.44797,955.33504 277.16797,579.76172 445.9413,379.05506 593.56815,431.17605 720.02148,736.10938 c 40.8,-18.08 60.17282,-40.05454 58.13282,-65.89454 -8.16,-42.21333 26.25391,-81.39927 103.2539,-117.58593 31.10667,-38.76 18.10667,-111.98764 -39,-219.6543 43.84,12.05333 70.61331,2.14792 80.30664,-29.71875 7.4,-6.86667 14.78717,-13.10771 22.17383,-18.73438 -10.8,3.44 -23.04036,5.16016 -36.70703,5.16016 -22.94667,0 -42.57258,-4.73289 -58.89258,-14.21289 -15.81333,-9.04 -23.70703,-20.02727 -23.70703,-32.94727 0,-12.92 7.8937,-24.11961 23.70703,-33.5996 16.32,-9.04 35.94591,-13.56055 58.89258,-13.56055 22.94667,0 42.31948,4.52055 58.13281,13.56055 16.30667,9.47999 24.4668,20.6796 24.4668,33.5996 0,7.70667 -3.05383,14.60131 -9.17383,20.66797 49.71998,-20.98666 105.04128,-18.62752 165.97458,7.11914 -30.5866,49.96 -22.948,93.02623 22.9453,129.21289 17.3334,22.81334 38.7606,22.81334 64.2539,0 53.5334,-34.03999 92.0409,-21.97283 115.4942,36.17383 l 123.1465,92.38672 c 9.68,-3.88 21.1588,-1.72021 34.4121,6.45313 27.5067,-18.58667 55.0415,-17.72073 82.6015,2.58593 -22.9466,-57.06666 -55.3214,-108.97336 -97.1347,-155.69336 C 1376.5275,250.92107 1256.9554,138.29515 1134.582,43.535156 1114.6887,38.361823 1094.8074,34.055234 1074.9141,30.615234 1019.3407,20.281901 961.72721,15.109375 902.06055,15.109375 Z M 703.95508,118.48242 c 10.72,0 19.89354,3.22636 27.54687,9.67969 7.64,6.46667 11.4668,14.22562 11.4668,23.26562 0,9.04 -3.8268,16.80058 -11.4668,23.25391 -7.65333,6.46667 -16.82687,9.69336 -27.54687,9.69336 -10.70667,0 -19.87987,-3.22669 -27.5332,-9.69336 -7.64,-6.45333 -11.4668,-14.21391 -11.4668,-23.25391 0,-9.04 3.8268,-16.79895 11.4668,-23.26562 7.65333,-6.45333 16.82653,-9.67969 27.5332,-9.67969 z M 556.3418,211.50781 c 5.09333,0 9.17356,1.2942 12.24023,3.88086 3.57333,3.01334 5.3457,6.67966 5.3457,10.98633 0,4.30667 -1.77237,7.74732 -5.3457,10.33398 -3.06667,3.01334 -7.1469,4.51954 -12.24023,4.51954 -5.09334,0 -9.42667,-1.5062 -13,-4.51954 -3.06667,-2.58666 -4.58789,-6.02731 -4.58789,-10.33398 0,-4.30667 1.52122,-7.97299 4.58789,-10.98633 3.57333,-2.58666 7.90666,-3.88086 13,-3.88086 z M 1613.3809,608.8418 c -1.5334,6.29333 -3.5722,12.75971 -6.1055,19.37304 4.1067,0.57334 7.9335,1.86753 11.4668,3.88086 -1.6933,-7.69333 -3.4813,-15.44057 -5.3613,-23.2539 z m -376.3067,574.9863 c 24.9867,0 46.1472,6.4667 63.4805,19.3867 17.8533,12.92 26.7734,28.6402 26.7734,47.1602 0,18.52 -8.9201,34.2402 -26.7734,47.1602 -17.3333,12.92 -38.4938,19.3867 -63.4805,19.3867 -24.9866,0 -46.3986,-6.4667 -64.2519,-19.3867 -7.1334,-5.6 -12.7482,-11.6268 -16.8282,-18.0801 -2.04,1.28 -4.0791,2.5738 -6.1191,3.8672 -15.2933,9.48 -33.6531,14.2129 -55.0664,14.2129 -21.4133,0 -39.7731,-4.7329 -55.0664,-14.2129 -15.3067,-9.4667 -22.9473,-20.8803 -22.9473,-34.2403 0,-13.3466 7.6406,-24.7602 22.9473,-34.2402 15.2933,-9.48 33.6531,-14.2129 55.0664,-14.2129 21.4133,0 39.7731,4.7329 55.0664,14.2129 2.5467,1.2933 4.8526,2.7995 6.8926,4.5195 4.0666,-5.6 9.428,-10.9731 16.0547,-16.1465 17.8533,-12.92 39.2653,-19.3867 64.2519,-19.3867 z m -97.9062,142.7871 c 11.7333,0 21.6661,3.4407 29.8261,10.334 8.16,6.8934 12.2403,15.2926 12.2403,25.1992 0,9.9067 -4.0803,18.3075 -12.2403,25.1875 -8.16,6.8934 -18.0928,10.3457 -29.8261,10.3457 -11.72,0 -21.6662,-3.4523 -29.8262,-10.3457 -8.16,-6.88 -12.2402,-15.2808 -12.2402,-25.1875 0,-9.9066 4.0802,-18.3058 12.2402,-25.1992 8.16,-6.8933 18.1062,-10.334 29.8262,-10.334 z"
           transform="matrix(7.5000002,0,0,-7.5000002,12436.364,17575.795)" />
      </g>
      <path
         d="m 17109.7,14273.3 c -107.7,-2.2 -109.4,-4 -111.6,-116.6 -2.1,112.6 -3.8,114.4 -111.6,116.6 107.8,2.2 109.5,4 111.6,116.5 2.2,-112.5 3.9,-114.3 111.6,-116.5"
         style="fill:#dcbb00;fill-opacity:1;fill-rule:nonzero;stroke:none"
         id="path52" />
      <path
         d="m 16498.9,13972.2 c -142.1,-2.9 -144.4,-5.3 -147.1,-153.7 -2.8,148.4 -5.1,150.8 -147.2,153.7 142.1,2.9 144.4,5.3 147.2,153.7 2.7,-148.4 5,-150.8 147.1,-153.7"
         style="fill:#dcbb00;fill-opacity:1;fill-rule:nonzero;stroke:none"
         id="path54" />
    </g>
    <path
       d="m 1298.4984,1195.0141 c -17.3334,-12.92 -38.4934,-19.3867 -63.48,-19.3867 -24.9867,0 -46.4,6.4667 -64.2534,19.3867 -6.6266,5.1733 -11.9866,10.5466 -16.0533,16.1466 -2.04,-1.72 -4.3467,-3.2266 -6.8933,-4.52 -15.2934,-9.48 -33.6534,-14.2133 -55.0667,-14.2133 -21.4133,0 -39.7733,4.7333 -55.0667,14.2133 -15.3066,9.48 -22.9466,20.8934 -22.9466,34.24 0,13.36 7.64,24.7734 22.9466,34.24 15.2934,9.48 33.6534,14.2134 55.0667,14.2134 21.4133,0 39.7733,-4.7334 55.0667,-14.2134 2.04,-1.2933 4.08,-2.5866 6.12,-3.8666 4.08,6.4533 9.6933,12.48 16.8266,18.08 17.8534,12.92 39.2667,19.3866 64.2534,19.3866 24.9866,0 46.1466,-6.4666 63.48,-19.3866 17.8533,-12.92 26.7733,-28.64 26.7733,-47.16 0,-18.52 -8.92,-34.24 -26.7733,-47.16 z m -191.2134,133.7333 c -8.16,6.8933 -12.24,15.2933 -12.24,25.2 0,9.9067 4.08,18.3067 12.24,25.1867 8.16,6.8933 18.1067,10.3466 29.8267,10.3466 11.7333,0 21.6667,-3.4533 29.8267,-10.3466 8.16,-6.88 12.24,-15.28 12.24,-25.1867 0,-9.9067 -4.08,-18.3067 -12.24,-25.2 -8.16,-6.8933 -18.0934,-10.3333 -29.8267,-10.3333 -11.72,0 -21.6667,3.44 -29.8267,10.3333 M 566.52505,228.50743 c 3.5734,-2.5866 5.3467,-6.0266 5.3467,-10.3333 0,-4.3067 -1.7733,-7.9733 -5.3467,-10.9867 -3.06662,-2.5866 -7.14662,-3.88 -12.23996,-3.88 -5.09333,0 -9.42666,1.2934 -13,3.88 -3.06666,3.0134 -4.58666,6.68 -4.58666,10.9867 0,4.3067 1.52,7.7467 4.58666,10.3333 3.57334,3.0134 7.90667,4.52 13,4.52 5.09334,0 9.17334,-1.5066 12.23996,-4.52 m 162.92,-108.54664 c -7.6533,-6.45334 -16.8266,-9.68 -27.5466,-9.68 -10.7067,0 -19.88,3.22666 -27.5334,9.68 -7.64,6.46666 -11.4666,14.22664 -11.4666,23.26664 0,9.04 3.8266,16.8 11.4666,23.2534 7.6534,6.4666 16.8267,9.6933 27.5334,9.6933 10.72,0 19.8933,-3.2267 27.5466,-9.6933 7.64,-6.4534 11.4667,-14.2134 11.4667,-23.2534 0,-9.04 -3.8267,-16.79998 -11.4667,-23.26664 m 234.8134,80.76004 c -15.8134,-9.04 -35.1867,-13.56 -58.1334,-13.56 -22.9466,0 -42.5733,4.52 -58.8933,13.56 -15.8133,9.48 -23.7067,20.68 -23.7067,33.6 0,12.92 7.8934,23.9066 23.7067,32.9466 16.32,9.48 35.9467,14.2134 58.8933,14.2134 13.6667,0 25.9067,-1.72 36.7067,-5.16 12.16,-8.5334 24.3867,-15.64 36.72,-21.3334 6.12,-6.0666 9.1733,-12.96 9.1733,-20.6666 0,-12.92 -8.16,-24.12 -24.4666,-33.6 m 662.37325,820.50657 c 0,5.16 2.2933,9.68 6.88,13.56 4.5867,3.88 9.9467,5.8133 16.0667,5.8133 6.12,0 11.4666,-1.9333 16.0533,-5.8133 4.6,-3.88 6.8933,-8.4 6.8933,-13.56 0,-5.1733 -2.2933,-9.6933 -6.8933,-13.5733 -4.5867,-3.88 -9.9333,-5.8134 -16.0533,-5.8134 -6.12,0 -11.48,1.9334 -16.0667,5.8134 -4.5867,3.88 -6.88,8.4 -6.88,13.5733 m -809.99995,596.3067 c -13.2533,0 -25.4933,2.3733 -36.7067,7.1066 -8.6666,3.4534 -16.5733,8.1867 -23.72,14.2134 -16.8266,14.2133 -25.24,31.2266 -25.24,51.0399 0,19.8134 8.4134,36.8267 25.24,51.04 16.8267,14.2134 36.9734,21.32 60.4267,21.32 23.4533,0 43.6,-7.1066 60.4267,-21.32 16.8266,-14.2133 25.24,-31.2266 25.24,-51.04 0,-19.8133 -8.4134,-36.8266 -25.24,-51.0399 -5.6134,-4.7334 -11.4667,-8.6134 -17.5867,-11.6267 -12.7467,-6.4667 -27.0267,-9.6933 -42.84,-9.6933"
       style="fill:#dddbd9;fill-opacity:1;fill-rule:nonzero;stroke:none;stroke-width:0.133333"
       id="path20-3" />
    <path
       d="m 671.45845,507.32073 c -95.8934,1.9734 -97.4134,3.5734 -99.2934,103.7334 -1.8933,-100.16 -3.4133,-101.76 -99.30662,-103.7334 95.89332,-1.96 97.41332,-3.56 99.30662,-103.72 1.88,100.16 3.4,101.76 99.2934,103.72"
       style="fill:#ffffff;fill-opacity:1;fill-rule:nonzero;stroke:none;stroke-width:0.133333"
       id="path50" />
    <path
       d="m 621.29845,432.13413 c -14.36,0.2933 -14.5867,0.5333 -14.88,15.5466 -0.28,-15.0133 -0.5067,-15.2533 -14.88,-15.5466 14.3733,-0.2934 14.6,-0.5334 14.88,-15.5334 0.2933,15 0.52,15.24 14.88,15.5334"
       style="fill:#ffffff;fill-opacity:1;fill-rule:nonzero;stroke:none;stroke-width:0.133333"
       id="path52-5" />
    <path
       d="m 539.85843,472.28073 c -18.94667,0.3867 -19.25333,0.7067 -19.61333,20.4934 -0.37334,-19.7867 -0.68,-20.1067 -19.62667,-20.4934 18.94667,-0.3866 19.25333,-0.7066 19.62667,-20.4933 0.36,19.7867 0.66666,20.1067 19.61333,20.4933"
       style="fill:#ffffff;fill-opacity:1;fill-rule:nonzero;stroke:none;stroke-width:0.133333"
       id="path54-3" />
    <circle
       style="fill:#f7f7f7;fill-opacity:1"
       id="path9057"
       cx="900.00458"
       cy="899.99805"
       r="901.96741" />
    <path
       d="m 1633.5117,1034.7874 c -4.5867,-3.88 -6.88,-8.4 -6.88,-13.56 0,-5.1733 2.2933,-9.6933 6.88,-13.5733 4.5867,-3.88 9.9467,-5.8134 16.0667,-5.8134 6.12,0 11.4666,1.9334 16.0533,5.8134 4.6,3.88 6.8933,8.4 6.8933,13.5733 0,5.16 -2.2933,9.68 -6.8933,13.56 -4.5867,3.88 -9.9333,5.8133 -16.0533,5.8133 -6.12,0 -11.48,-1.9333 -16.0667,-5.8133 z m -28.2933,-414.77327 c 2.5333,-6.6134 4.5733,-13.08 6.1066,-19.3734 1.88,7.8134 3.6667,15.56 5.36,23.2534 -3.5333,-2.0134 -7.36,-3.3067 -11.4666,-3.88 m -257,-192.52 c -23.4534,-58.1467 -61.96,-70.2134 -115.4934,-36.1734 -25.4933,22.8134 -46.92,22.8134 -64.2533,0 -45.8933,-36.1866 -53.5333,-79.2533 -22.9467,-129.2133 -60.9333,-25.7466 -116.2533,-28.1066 -165.97325,-7.12 -12.3333,5.6934 -24.56,12.8 -36.72,21.3334 -7.3867,5.6266 -14.7733,11.8666 -22.1733,18.7333 -9.6934,31.8667 -36.4667,41.7733 -80.3067,29.72 57.1067,107.6666 70.1067,180.8933 39,219.6533 -77,36.1867 -111.4133,75.3733 -103.2533,117.5867 2.04,25.84 -17.3334,47.8133 -58.1334,65.8933 -126.4533,-304.9333 -274.07995,-357.0533 -442.85328,-156.3467 -165.72,375.5734 -6.37333,609.23997 478.03998,700.97337 37.7333,-16.36 69.0933,-60.2934 94.08,-131.7867 44.36,3.8667 70.1067,-23.48 77.2533,-82.0533 -18.36,-75.37337 -44.1066,-132.43997 -77.2533,-171.19997 -38.24,-35.76 -29.8267,-64.8267 25.24,-87.2267 21.4133,-13.3467 21.4133,-38.5467 0,-75.5867 -2.04,-36.1866 22.6933,-60.08 74.1867,-71.72 46.4,11.64 89.23995,-13.56 128.50655,-75.5866 4.5867,50.8266 52.7734,96.0533 144.56,135.68 17.84,-15.5067 31.8667,-7.5334 42.0667,23.9066 v 48.4534 l 76.48,87.2133 c 66.8,12.92 97.9067,-1.2933 93.32,-42.64 -40.8,-23.6933 -81.3333,-66.76 -121.6133,-129.2133 -35.1867,-71.4934 -19.1334,-99.4934 48.1866,-83.9867 l 153.7334,138.2533 c 42.1733,33.28 81.4266,31.3334 117.7866,-5.8133 0.48,44.36 -2.84,90.88 -9.9466,139.5467 -31.6134,212.77327 -116,385.49327 -253.16,518.14657 -137.1734,132.2267 -297.8,205.2267 -481.86665,219.0134 -8.6667,0.4266 -17.08,0.8666 -25.24,1.2933 6.12,3.0133 11.9733,6.8933 17.5867,11.6267 16.8266,14.2133 25.24,31.2266 25.24,51.0399 0,19.8134 -8.4134,36.8267 -25.24,51.04 -16.8267,14.2134 -36.9734,21.32 -60.4267,21.32 -23.4533,0 -43.6,-7.1066 -60.4267,-21.32 -16.8266,-14.2133 -25.24,-31.2266 -25.24,-51.04 0,-19.8133 8.4134,-36.8266 25.24,-51.0399 7.1467,-6.0267 15.0534,-10.76 23.72,-14.2134 -145.84,-14.2133 -285.03995,-79.8933 -417.62662,-197.04 C 197.6051,1282.0141 93.831767,1008.0807 51.005107,605.80073 c -30.6,90.0267 -45.8933302,186.5067 -45.8933302,289.44 0,245.50667 87.1999902,454.82667 261.5866632,627.97337 174.89332,173.5733 386.00001,260.3599 633.30661,260.3599 247.30665,0 458.15995,-86.7866 632.54665,-260.3599 174.8933,-173.1467 262.3466,-382.4667 262.3466,-627.97337 0,-245.5066 -87.4533,-455.04 -262.3466,-628.6133 C 1415.7784,150.33413 1282.445,73.240787 1132.525,35.334117 c 122.3734,94.760003 241.9467,207.386713 358.72,337.893313 41.8134,46.72 74.1867,98.6267 97.1334,155.6933 -27.56,-20.3066 -55.0934,-21.1733 -82.6,-2.5866 -13.2534,-8.1734 -24.7334,-10.3334 -34.4134,-6.4534 l -123.1466,-92.3866"
       style="fill:#dadedd;fill-opacity:1;fill-rule:nonzero;stroke:none;stroke-width:0.133333"
       id="path22-6" />
    <path
       d="m 701.89845,110.28079 c 10.72,0 19.8933,3.22666 27.5466,9.68 7.64,6.46666 11.4667,14.22664 11.4667,23.26664 0,9.04 -3.8267,16.8 -11.4667,23.2534 -7.6533,6.4666 -16.8266,9.6933 -27.5466,9.6933 -10.7067,0 -19.88,-3.2267 -27.5334,-9.6933 -7.64,-6.4534 -11.4666,-14.2134 -11.4666,-23.2534 0,-9.04 3.8266,-16.79998 11.4666,-23.26664 7.6534,-6.45334 16.8267,-9.68 27.5334,-9.68 z m -130.0267,107.89334 c 0,4.3067 -1.7733,7.7467 -5.3467,10.3333 -3.06662,3.0134 -7.14662,4.52 -12.23996,4.52 -5.09333,0 -9.42666,-1.5066 -13,-4.52 -3.06666,-2.5866 -4.58666,-6.0266 -4.58666,-10.3333 0,-4.3067 1.52,-7.9733 4.58666,-10.9867 3.57334,-2.5866 7.90667,-3.88 13,-3.88 5.09334,0 9.17334,1.2934 12.23996,3.88 3.5734,3.0134 5.3467,6.68 5.3467,10.9867 M 1095.045,1353.9474 c 0,-9.9067 4.08,-18.3067 12.24,-25.2 8.16,-6.8933 18.1067,-10.3333 29.8267,-10.3333 11.7333,0 21.6667,3.44 29.8267,10.3333 8.16,6.8933 12.24,15.2933 12.24,25.2 0,9.9067 -4.08,18.3067 -12.24,25.1867 -8.16,6.8933 -18.0934,10.3466 -29.8267,10.3466 -11.72,0 -21.6667,-3.4533 -29.8267,-10.3466 -8.16,-6.88 -12.24,-15.28 -12.24,-25.1867 m 139.9734,-178.32 c 24.9866,0 46.1466,6.4667 63.48,19.3867 17.8533,12.92 26.7733,28.64 26.7733,47.16 0,18.52 -8.92,34.24 -26.7733,47.16 -17.3334,12.92 -38.4934,19.3866 -63.48,19.3866 -24.9867,0 -46.4,-6.4666 -64.2534,-19.3866 -7.1333,-5.6 -12.7466,-11.6267 -16.8266,-18.08 -2.04,1.28 -4.08,2.5733 -6.12,3.8666 -15.2934,9.48 -33.6534,14.2134 -55.0667,14.2134 -21.4133,0 -39.7733,-4.7334 -55.0667,-14.2134 -15.3066,-9.4666 -22.9466,-20.88 -22.9466,-34.24 0,-13.3466 7.64,-24.76 22.9466,-34.24 15.2934,-9.48 33.6534,-14.2133 55.0667,-14.2133 21.4133,0 39.7733,4.7333 55.0667,14.2133 2.5466,1.2934 4.8533,2.8 6.8933,4.52 4.0667,-5.6 9.4267,-10.9733 16.0533,-16.1466 17.8534,-12.92 39.2667,-19.3867 64.2534,-19.3867 M 906.12505,187.16083 c 22.9467,0 42.32,4.52 58.1334,13.56 16.3066,9.48 24.4666,20.68 24.4666,33.6 0,7.7066 -3.0533,14.6 -9.1733,20.6666 49.71995,-20.9866 105.03995,-18.6266 165.97325,7.12 -30.5866,49.96 -22.9466,93.0267 22.9467,129.2133 17.3333,22.8134 38.76,22.8134 64.2533,0 53.5334,-34.04 92.04,-21.9733 115.4934,36.1734 l 123.1466,92.3866 c 9.68,-3.88 21.16,-1.72 34.4134,6.4534 27.5066,-18.5867 55.04,-17.72 82.6,2.5866 -22.9467,-57.0666 -55.32,-108.9733 -97.1334,-155.6933 -116.7733,-130.5066 -236.3466,-243.13331 -358.72,-337.893313 -19.8933,-5.17333 -39.7733,-9.48 -59.6666,-12.92 -55.5734,-10.33333 -113.18665,-15.50667 -172.85335,-15.50667 -247.3066,0 -458.41329,86.57334 -633.30661,259.719983 -101.48,100.7867 -173.373333,213.84 -215.693333,339.1733 42.82666,402.27997 146.599993,676.21337 311.293323,821.79997 132.58667,117.1467 271.78662,182.8267 417.62662,197.04 11.2134,-4.7333 23.4534,-7.1066 36.7067,-7.1066 15.8133,0 30.0933,3.2266 42.84,9.6933 8.16,-0.4267 16.5733,-0.8667 25.24,-1.2933 184.06665,-13.7867 344.69325,-86.7867 481.86665,-219.0134 137.16,-132.6533 221.5466,-305.3733 253.16,-518.14657 7.1066,-48.6667 10.4266,-95.1867 9.9466,-139.5467 -36.36,37.1467 -75.6133,39.0933 -117.7866,5.8133 L 1358.165,616.78743 c -67.32,-15.5067 -83.3733,12.4933 -48.1866,83.9867 40.28,62.4533 80.8133,105.52 121.6133,129.2133 4.5867,41.3467 -26.52,55.56 -93.32,42.64 l -76.48,-87.2133 v -48.4534 c -10.2,-31.44 -24.2267,-39.4133 -42.0667,-23.9066 -91.7866,-39.6267 -139.9733,-84.8534 -144.56,-135.68 -39.2666,62.0266 -82.10655,87.2266 -128.50655,75.5866 -51.4934,11.64 -76.2267,35.5334 -74.1867,71.72 21.4133,37.04 21.4133,62.24 0,75.5867 -55.0667,22.4 -63.48,51.4667 -25.24,87.2267 33.1467,38.76 58.8933,95.8266 77.2533,171.19997 -7.1466,58.5733 -32.8933,85.92 -77.2533,82.0533 -24.9867,71.4933 -56.3467,115.4267 -94.08,131.7867 -484.41331,-91.7334 -643.75998,-325.39997 -478.03998,-700.97337 168.77333,-200.7066 316.39998,-148.5866 442.85328,156.3467 40.8,-18.08 60.1734,-40.0533 58.1334,-65.8933 -8.16,-42.2134 26.2533,-81.4 103.2533,-117.5867 31.1067,-38.76 18.1067,-111.9867 -39,-219.6533 43.84,12.0533 70.6133,2.1467 80.3067,-29.72 7.4,-6.8667 14.7866,-13.1067 22.1733,-18.7333 -10.8,3.44 -23.04,5.16 -36.7067,5.16 -22.9466,0 -42.5733,-4.7334 -58.8933,-14.2134 -15.8133,-9.04 -23.7067,-20.0266 -23.7067,-32.9466 0,-12.92 7.8934,-24.12 23.7067,-33.6 16.32,-9.04 35.9467,-13.56 58.8933,-13.56 m 705.19995,413.4799 c -1.5333,6.2934 -3.5733,12.76 -6.1066,19.3734 4.1066,0.5733 7.9333,1.8666 11.4666,3.88 -1.6933,-7.6934 -3.48,-15.44 -5.36,-23.2534"
       style="fill:#f7f7f7;fill-opacity:1;fill-rule:nonzero;stroke:none;stroke-width:0.133333"
       id="path24-7" />
  </g>
</svg>
