<?xml version="1.0" encoding="UTF-8" standalone="no"?>
<!-- Created with Inkscape (http://www.inkscape.org/) -->

<svg
   width="1800px"
   height="1800px"
   viewBox="0 0 1800 1800"
   version="1.1"
   id="SVGRoot"
   sodipodi:docname="sun1.svg"
   inkscape:version="1.1.2 (0a00cf5339, 2022-02-04)"
   xmlns:inkscape="http://www.inkscape.org/namespaces/inkscape"
   xmlns:sodipodi="http://sodipodi.sourceforge.net/DTD/sodipodi-0.dtd"
   xmlns="http://www.w3.org/2000/svg"
   xmlns:svg="http://www.w3.org/2000/svg">
  <sodipodi:namedview
     id="namedview16133"
     pagecolor="#ffffff"
     bordercolor="#666666"
     borderopacity="1.0"
     inkscape:pageshadow="2"
     inkscape:pageopacity="0.0"
     inkscape:pagecheckerboard="0"
     inkscape:document-units="px"
     showgrid="false"
     inkscape:zoom="0.16013082"
     inkscape:cx="552.67312"
     inkscape:cy="293.51002"
     inkscape:window-width="1680"
     inkscape:window-height="981"
     inkscape:window-x="0"
     inkscape:window-y="0"
     inkscape:window-maximized="1"
     inkscape:current-layer="layer1"
     showguides="true"
     inkscape:guide-bbox="true">
    <sodipodi:guide
       position="2.1328296,900.00193"
       orientation="0,-1"
       id="guide16255" />
    <sodipodi:guide
       position="900.0046,1793.091"
       orientation="1,0"
       id="guide16257" />
  </sodipodi:namedview>
  <defs
     id="defs16128" />
  <g
     inkscape:label="Warstwa 1"
     inkscape:groupmode="layer"
     id="layer1">
    <g
       id="g14254"
       style="fill:#dcbb00;fill-opacity:1"
       transform="matrix(0.13333333,0,0,-0.13333333,-1660.2378,2335.2389)">
      <path
         d="m 22188.7,8551.7 c -130,96.9 -288.7,145.4 -476.1,145.4 -187.4,0 -348,-48.5 -481.9,-145.4 -49.7,-38.8 -89.9,-79.1 -120.4,-121.1 -15.3,12.9 -32.6,24.2 -51.7,33.9 -114.7,71.1 -252.4,106.6 -413,106.6 -160.6,0 -298.3,-35.5 -413,-106.6 -114.8,-71.1 -172.1,-156.7 -172.1,-256.8 0,-100.2 57.3,-185.8 172.1,-256.8 114.7,-71.1 252.4,-106.6 413,-106.6 160.6,0 298.3,35.5 413,106.6 15.3,9.7 30.6,19.4 45.9,29 30.6,-48.4 72.7,-93.6 126.2,-135.6 133.9,-96.9 294.5,-145.4 481.9,-145.4 187.4,0 346.1,48.5 476.1,145.4 133.9,96.9 200.8,214.8 200.8,353.7 0,138.9 -66.9,256.8 -200.8,353.7 z m -1434.1,-1003 c -61.2,-51.7 -91.8,-114.7 -91.8,-189 0,-74.3 30.6,-137.3 91.8,-188.9 61.2,-51.7 135.8,-77.6 223.7,-77.6 88,0 162.5,25.9 223.7,77.6 61.2,51.6 91.8,114.6 91.8,188.9 0,74.3 -30.6,137.3 -91.8,189 -61.2,51.7 -135.7,77.5 -223.7,77.5 -87.9,0 -162.5,-25.8 -223.7,-77.5 m -4055.7,8251.8 c 26.8,19.4 40.1,45.2 40.1,77.5 0,32.3 -13.3,59.8 -40.1,82.4 -23,19.4 -53.6,29.1 -91.8,29.1 -38.2,0 -70.7,-9.7 -97.5,-29.1 -23,-22.6 -34.4,-50.1 -34.4,-82.4 0,-32.3 11.4,-58.1 34.4,-77.5 26.8,-22.6 59.3,-33.9 97.5,-33.9 38.2,0 68.8,11.3 91.8,33.9 m 1221.9,814.1 c -57.4,48.4 -126.2,72.6 -206.6,72.6 -80.3,0 -149.1,-24.2 -206.5,-72.6 -57.3,-48.5 -86,-106.7 -86,-174.5 0,-67.8 28.7,-126 86,-174.4 57.4,-48.5 126.2,-72.7 206.5,-72.7 80.4,0 149.2,24.2 206.6,72.7 57.3,48.4 86,106.6 86,174.4 0,67.8 -28.7,126 -86,174.5 m 1761.1,-605.7 c -118.6,67.8 -263.9,101.7 -436,101.7 -172.1,0 -319.3,-33.9 -441.7,-101.7 -118.6,-71.1 -177.8,-155.1 -177.8,-252 0,-96.9 59.2,-179.3 177.8,-247.1 122.4,-71.1 269.6,-106.6 441.7,-106.6 102.5,0 194.3,12.9 275.3,38.7 91.2,64 182.9,117.3 275.4,160 45.9,45.5 68.8,97.2 68.8,155 0,96.9 -61.2,180.9 -183.5,252 m 4967.8,-6153.8 c 0,-38.7 17.2,-72.6 51.6,-101.7 34.4,-29.1 74.6,-43.6 120.5,-43.6 45.9,0 86,14.5 120.4,43.6 34.5,29.1 51.7,63 51.7,101.7 0,38.8 -17.2,72.7 -51.7,101.8 -34.4,29.1 -74.5,43.6 -120.4,43.6 -45.9,0 -86.1,-14.5 -120.5,-43.6 -34.4,-29.1 -51.6,-63 -51.6,-101.8 m -6075,-4472.3 c -99.4,0 -191.2,-17.8 -275.3,-53.3 -65,-25.9 -124.3,-61.4 -177.9,-106.6 -126.2,-106.6 -189.3,-234.2 -189.3,-382.8 0,-148.6 63.1,-276.2 189.3,-382.8 126.2,-106.6 277.3,-159.9 453.2,-159.9 175.9,0 327,53.3 453.2,159.9 126.2,106.6 189.3,234.2 189.3,382.8 0,148.6 -63.1,276.2 -189.3,382.8 -42.1,35.5 -86,64.6 -131.9,87.2 -95.6,48.5 -202.7,72.7 -321.3,72.7"
         style="fill:#dcbb00;fill-opacity:1;fill-rule:nonzero;stroke:none"
         id="path20" />
      <g
         id="g13901"
         style="fill:#dcbb00;fill-opacity:1">
        <path
           d="m 24701.3,9753.4 c -34.4,29.1 -51.6,63 -51.6,101.7 0,38.8 17.2,72.7 51.6,101.8 34.4,29.1 74.6,43.6 120.5,43.6 45.9,0 86,-14.5 120.4,-43.6 34.5,-29.1 51.7,-63 51.7,-101.8 0,-38.7 -17.2,-72.6 -51.7,-101.7 -34.4,-29.1 -74.5,-43.6 -120.4,-43.6 -45.9,0 -86.1,14.5 -120.5,43.6 z m -212.2,3110.8 c 19,49.6 34.3,98.1 45.8,145.3 14.1,-58.6 27.5,-116.7 40.2,-174.4 -26.5,15.1 -55.2,24.8 -86,29.1 m -1927.5,1443.9 c -175.9,436.1 -464.7,526.6 -866.2,271.3 -191.2,-171.1 -351.9,-171.1 -481.9,0 -344.2,271.4 -401.5,594.4 -172.1,969.1 -457,193.1 -871.9,210.8 -1244.8,53.4 -92.5,-42.7 -184.2,-96 -275.4,-160 -55.4,-42.2 -110.8,-89 -166.3,-140.5 -72.7,-239 -273.5,-313.3 -602.3,-222.9 428.3,-807.5 525.8,-1356.7 292.5,-1647.4 -577.5,-271.4 -1620.4,594.9 -1559.2,278.3 15.3,-193.8 525.022,-351.223 219.022,-486.823 -948.4,2287 -1925.822,1510.323 -3191.622,5.023 -1242.9,-2816.8 -47.8,-4569.3 3585.3,-5257.3 283,122.7 518.2,452.2 705.6,988.4 332.7,-29 525.8,176.1 579.4,615.4 -137.7,565.3 -330.8,993.3 -579.4,1284 -286.8,268.2 -223.7,486.2 189.3,654.2 160.6,100.1 160.6,289.1 0,566.9 -15.3,271.4 170.2,450.6 556.4,537.9 348,-87.3 669.3,101.7 963.8,566.9 34.4,-381.2 395.8,-720.4 1084.2,-1017.6 133.8,116.3 239,56.5 315.5,-179.3 v -363.4 l 573.6,-654.1 c 501,-96.9 734.3,9.7 699.9,319.8 -306,177.7 -610,500.7 -912.1,969.1 -263.9,536.2 -143.5,746.2 361.4,629.9 l 1153,-1036.9 c 316.3,-249.6 610.7,-235 883.4,43.6 3.6,-332.7 -21.3,-681.6 -74.6,-1046.6 -237.1,-1595.8 -870,-2891.2 -1898.7,-3886.1 -1028.8,-991.7 -2233.5,-1539.2 -3614,-1642.6 -65,-3.2 -128.1,-6.5 -189.3,-9.7 45.9,-22.6 89.8,-51.7 131.9,-87.2 126.2,-106.6 189.3,-234.2 189.3,-382.8 0,-148.6 -63.1,-276.2 -189.3,-382.8 -126.2,-106.6 -277.3,-159.9 -453.2,-159.9 -175.9,0 -327,53.3 -453.2,159.9 -126.2,106.6 -189.3,234.2 -189.3,382.8 0,148.6 63.1,276.2 189.3,382.8 53.6,45.2 112.9,80.7 177.9,106.6 -1093.8,106.6 -2137.8,599.2 -3132.2,1477.8 -1235.2,1091.9 -2013.5,3146.4 -2334.7,6163.5 -229.5,-675.2 -344.2,-1398.8 -344.2,-2170.8 0,-1841.3 654,-3411.2 1961.9,-4709.8 1311.7,-1301.8 2895,-1952.7 4749.8,-1952.7 1854.8,0 3436.2,650.9 4744.1,1952.7 1311.7,1298.6 1967.6,2868.5 1967.6,4709.8 0,1841.3 -655.9,3412.8 -1967.6,4714.6 -875.8,872.2 -1875.8,1450.4 -3000.2,1734.7 917.8,-710.7 1814.6,-1555.4 2690.4,-2534.2 313.6,-350.4 556.4,-739.7 728.5,-1167.7 -206.7,152.3 -413.2,158.8 -619.5,19.4 -99.4,61.3 -185.5,77.5 -258.1,48.4 l -923.6,692.9"
           style="fill:#dcbb00;fill-opacity:1;fill-rule:nonzero;stroke:none"
           id="path22"
           sodipodi:nodetypes="sssscscssccccccccccccccccccccccccccccccccccccccsssssccccscscsccccccc" />
        <path
           id="path24"
           style="fill:#dcbb00;fill-opacity:1;fill-rule:nonzero;stroke:none;stroke-width:0.133333"
           d="m 902.06055,15.109375 c -247.30666,0 -458.41331,86.572085 -633.30664,259.718745 -101.48,100.78667 -173.373364,213.8405 -215.693363,339.17383 42.826665,402.28005 146.601593,676.21415 311.294923,821.80075 132.58666,117.1467 271.78696,182.8258 417.62695,197.0391 11.21333,-4.7333 23.45175,-7.1074 36.70508,-7.1074 15.81333,0 30.09318,3.2267 42.83984,9.6933 8.16,-0.4266 16.57357,-0.8663 25.24024,-1.2929 184.06662,-13.7867 344.69382,-86.787 481.86722,-219.0137 137.16,-132.6533 221.5468,-305.3731 253.1601,-518.14649 7.1067,-48.66667 10.4273,-95.18688 9.9473,-139.54688 -36.36,37.14667 -75.6138,39.09446 -117.7871,5.81446 L 1360.2207,624.98828 c -67.32,-15.50667 -83.3722,12.493 -48.1855,83.98633 40.28,62.45333 80.8132,105.52151 121.6132,129.21484 4.5867,41.34667 -26.5203,55.55867 -93.3203,42.63867 l -76.4804,-87.21289 v -48.45312 c -10.2,-31.44 -24.2265,-39.41292 -42.0665,-23.90625 -91.7866,-39.62667 -139.9738,-84.85302 -144.5605,-135.67969 -39.2667,62.02667 -82.10586,87.22594 -128.50586,75.58594 -51.49333,11.64 -76.2275,35.53404 -74.1875,71.7207 21.41334,37.04 21.41334,62.23927 0,75.58594 -55.06666,22.4 -63.47828,51.46656 -25.23828,87.22656 33.14667,38.76 58.89196,95.82585 77.25196,171.19919 -7.14667,58.5734 -32.89196,85.9214 -77.25196,82.0547 -24.98666,71.4934 -56.34674,115.4252 -94.08008,131.7852 C 270.79566,1189.001 111.44797,955.33504 277.16797,579.76172 445.9413,379.05506 593.56815,431.17605 720.02148,736.10938 c 40.8,-18.08 60.17282,-40.05454 58.13282,-65.89454 -8.16,-42.21333 26.25391,-81.39927 103.2539,-117.58593 31.10667,-38.76 18.10667,-111.98764 -39,-219.6543 43.84,12.05333 70.61331,2.14792 80.30664,-29.71875 7.4,-6.86667 14.78717,-13.10771 22.17383,-18.73438 -10.8,3.44 -23.04036,5.16016 -36.70703,5.16016 -22.94667,0 -42.57258,-4.73289 -58.89258,-14.21289 -15.81333,-9.04 -23.70703,-20.02727 -23.70703,-32.94727 0,-12.92 7.8937,-24.11961 23.70703,-33.5996 16.32,-9.04 35.94591,-13.56055 58.89258,-13.56055 22.94667,0 42.31948,4.52055 58.13281,13.56055 16.30667,9.47999 24.4668,20.6796 24.4668,33.5996 0,7.70667 -3.05383,14.60131 -9.17383,20.66797 49.71998,-20.98666 105.04128,-18.62752 165.97458,7.11914 -30.5866,49.96 -22.948,93.02623 22.9453,129.21289 17.3334,22.81334 38.7606,22.81334 64.2539,0 53.5334,-34.03999 92.0409,-21.97283 115.4942,36.17383 l 123.1465,92.38672 c 9.68,-3.88 21.1588,-1.72021 34.4121,6.45313 27.5067,-18.58667 55.0415,-17.72073 82.6015,2.58593 -22.9466,-57.06666 -55.3214,-108.97336 -97.1347,-155.69336 C 1376.5275,250.92107 1256.9554,138.29515 1134.582,43.535156 1114.6887,38.361823 1094.8074,34.055234 1074.9141,30.615234 1019.3407,20.281901 961.72721,15.109375 902.06055,15.109375 Z M 703.95508,118.48242 c 10.72,0 19.89354,3.22636 27.54687,9.67969 7.64,6.46667 11.4668,14.22562 11.4668,23.26562 0,9.04 -3.8268,16.80058 -11.4668,23.25391 -7.65333,6.46667 -16.82687,9.69336 -27.54687,9.69336 -10.70667,0 -19.87987,-3.22669 -27.5332,-9.69336 -7.64,-6.45333 -11.4668,-14.21391 -11.4668,-23.25391 0,-9.04 3.8268,-16.79895 11.4668,-23.26562 7.65333,-6.45333 16.82653,-9.67969 27.5332,-9.67969 z M 556.3418,211.50781 c 5.09333,0 9.17356,1.2942 12.24023,3.88086 3.57333,3.01334 5.3457,6.67966 5.3457,10.98633 0,4.30667 -1.77237,7.74732 -5.3457,10.33398 -3.06667,3.01334 -7.1469,4.51954 -12.24023,4.51954 -5.09334,0 -9.42667,-1.5062 -13,-4.51954 -3.06667,-2.58666 -4.58789,-6.02731 -4.58789,-10.33398 0,-4.30667 1.52122,-7.97299 4.58789,-10.98633 3.57333,-2.58666 7.90666,-3.88086 13,-3.88086 z M 1613.3809,608.8418 c -1.5334,6.29333 -3.5722,12.75971 -6.1055,19.37304 4.1067,0.57334 7.9335,1.86753 11.4668,3.88086 -1.6933,-7.69333 -3.4813,-15.44057 -5.3613,-23.2539 z m -376.3067,574.9863 c 24.9867,0 46.1472,6.4667 63.4805,19.3867 17.8533,12.92 26.7734,28.6402 26.7734,47.1602 0,18.52 -8.9201,34.2402 -26.7734,47.1602 -17.3333,12.92 -38.4938,19.3867 -63.4805,19.3867 -24.9866,0 -46.3986,-6.4667 -64.2519,-19.3867 -7.1334,-5.6 -12.7482,-11.6268 -16.8282,-18.0801 -2.04,1.28 -4.0791,2.5738 -6.1191,3.8672 -15.2933,9.48 -33.6531,14.2129 -55.0664,14.2129 -21.4133,0 -39.7731,-4.7329 -55.0664,-14.2129 -15.3067,-9.4667 -22.9473,-20.8803 -22.9473,-34.2403 0,-13.3466 7.6406,-24.7602 22.9473,-34.2402 15.2933,-9.48 33.6531,-14.2129 55.0664,-14.2129 21.4133,0 39.7731,4.7329 55.0664,14.2129 2.5467,1.2933 4.8526,2.7995 6.8926,4.5195 4.0666,-5.6 9.428,-10.9731 16.0547,-16.1465 17.8533,-12.92 39.2653,-19.3867 64.2519,-19.3867 z m -97.9062,142.7871 c 11.7333,0 21.6661,3.4407 29.8261,10.334 8.16,6.8934 12.2403,15.2926 12.2403,25.1992 0,9.9067 -4.0803,18.3075 -12.2403,25.1875 -8.16,6.8934 -18.0928,10.3457 -29.8261,10.3457 -11.72,0 -21.6662,-3.4523 -29.8262,-10.3457 -8.16,-6.88 -12.2402,-15.2808 -12.2402,-25.1875 0,-9.9066 4.0802,-18.3058 12.2402,-25.1992 8.16,-6.8933 18.1062,-10.334 29.8262,-10.334 z"
           transform="matrix(7.5000002,0,0,-7.5000002,12436.364,17575.795)" />
      </g>
      <path
         d="m 17109.7,14273.3 c -107.7,-2.2 -109.4,-4 -111.6,-116.6 -2.1,112.6 -3.8,114.4 -111.6,116.6 107.8,2.2 109.5,4 111.6,116.5 2.2,-112.5 3.9,-114.3 111.6,-116.5"
         style="fill:#dcbb00;fill-opacity:1;fill-rule:nonzero;stroke:none"
         id="path52" />
      <path
         d="m 16498.9,13972.2 c -142.1,-2.9 -144.4,-5.3 -147.1,-153.7 -2.8,148.4 -5.1,150.8 -147.2,153.7 142.1,2.9 144.4,5.3 147.2,153.7 2.7,-148.4 5,-150.8 147.1,-153.7"
         style="fill:#dcbb00;fill-opacity:1;fill-rule:nonzero;stroke:none"
         id="path54" />
    </g>
    <circle
       style="fill:#dcbb00;fill-opacity:1"
       id="path4091"
       cx="900.00458"
       cy="899.99805"
       r="878.92957" />
  </g>
</svg>
